# xmcd
#
# Track frame offsets:
#	150
#	20027
#	31627
#	44702
#	61351
#	75582
#	92569
#	122701
#	149591
#	154941
#	173440
#	197427
#
# Disc length: 2840 seconds
#
# Revision: 1
# Processed by: cddbd v1.5.2PL0 Copyright (c) Steve Scherf et al.
# Submitted via: EasyCDDAExtractor 11.1.0.1
#
DISCID=980b160c
DTITLE=Jesse Fuller - Move On Down The Line
DYEAR=1965
DGENRE=Blues
TTITLE0=Move On Down The Line
TTITLE1=Stealing
TTITLE2=Ninety Nine Years And One Dark Day
TTITLE3=Animal Fair
TTITLE4=Sleeping In The Midnight Cold
TTITLE5=Stackolee
TTITLE6=John Henry
TTITLE7=Railroad Worksong
TTITLE8=Lining Up The Track
TTITLE9=Hanging 'Round A Skin Game
TTITLE10=Railroad Blues
TTITLE11=San Francisco Bay Blues
EXTD=
EXTT0=
EXTT1=
EXTT2=
EXTT3=
EXTT4=
EXTT5=
EXTT6=
EXTT7=
EXTT8=
EXTT9=
EXTT10=
EXTT11=
PLAYORDER=
